<svg id="visual" viewBox="0 0 900 600" width="900" height="600" xmlns="http://www.w3.org/2000/svg" xmlns:xlink="http://www.w3.org/1999/xlink" version="1.1"><rect x="0" y="0" width="900" height="600" fill="#000000"></rect><path d="M0 412L21.5 407.5C43 403 86 394 128.8 400.8C171.7 407.7 214.3 430.3 257.2 452.5C300 474.7 343 496.3 385.8 496.2C428.7 496 471.3 474 514.2 468.2C557 462.3 600 472.7 642.8 464.8C685.7 457 728.3 431 771.2 431.8C814 432.7 857 460.3 878.5 474.2L900 488L900 601L878.5 601C857 601 814 601 771.2 601C728.3 601 685.7 601 642.8 601C600 601 557 601 514.2 601C471.3 601 428.7 601 385.8 601C343 601 300 601 257.2 601C214.3 601 171.7 601 128.8 601C86 601 43 601 21.5 601L0 601Z" fill="#FCAF3C" stroke-linecap="round" stroke-linejoin="miter"></path></svg>