<svg id="visual" viewBox="0 0 900 600" width="900" height="600" xmlns="http://www.w3.org/2000/svg" xmlns:xlink="http://www.w3.org/1999/xlink" version="1.1"><path d="M0 253L82 253L82 259L164 259L164 115L245 115L245 133L327 133L327 181L409 181L409 175L491 175L491 235L573 235L573 187L655 187L655 85L736 85L736 85L818 85L818 163L900 163L900 127L900 0L900 0L818 0L818 0L736 0L736 0L655 0L655 0L573 0L573 0L491 0L491 0L409 0L409 0L327 0L327 0L245 0L245 0L164 0L164 0L82 0L82 0L0 0Z" fill="#fcaf3c"></path><path d="M0 391L82 391L82 325L164 325L164 253L245 253L245 199L327 199L327 241L409 241L409 319L491 319L491 355L573 355L573 247L655 247L655 223L736 223L736 229L818 229L818 301L900 301L900 271L900 125L900 161L818 161L818 83L736 83L736 83L655 83L655 185L573 185L573 233L491 233L491 173L409 173L409 179L327 179L327 131L245 131L245 113L164 113L164 257L82 257L82 251L0 251Z" fill="#e2695c"></path><path d="M0 475L82 475L82 421L164 421L164 403L245 403L245 487L327 487L327 469L409 469L409 439L491 439L491 499L573 499L573 421L655 421L655 415L736 415L736 439L818 439L818 439L900 439L900 511L900 269L900 299L818 299L818 227L736 227L736 221L655 221L655 245L573 245L573 353L491 353L491 317L409 317L409 239L327 239L327 197L245 197L245 251L164 251L164 323L82 323L82 389L0 389Z" fill="#99426b"></path><path d="M0 559L82 559L82 469L164 469L164 487L245 487L245 559L327 559L327 505L409 505L409 511L491 511L491 541L573 541L573 493L655 493L655 517L736 517L736 511L818 511L818 541L900 541L900 553L900 509L900 437L818 437L818 437L736 437L736 413L655 413L655 419L573 419L573 497L491 497L491 437L409 437L409 467L327 467L327 485L245 485L245 401L164 401L164 419L82 419L82 473L0 473Z" fill="#412e55"></path><path d="M0 601L82 601L82 601L164 601L164 601L245 601L245 601L327 601L327 601L409 601L409 601L491 601L491 601L573 601L573 601L655 601L655 601L736 601L736 601L818 601L818 601L900 601L900 601L900 551L900 539L818 539L818 509L736 509L736 515L655 515L655 491L573 491L573 539L491 539L491 509L409 509L409 503L327 503L327 557L245 557L245 485L164 485L164 467L82 467L82 557L0 557Z" fill="#001122"></path></svg>