<svg id="visual" viewBox="0 0 900 600" width="900" height="600" xmlns="http://www.w3.org/2000/svg" xmlns:xlink="http://www.w3.org/1999/xlink" version="1.1"><rect x="0" y="0" width="900" height="600" fill="#ffffff"></rect><path d="M0 380L21.5 400.2C43 420.3 86 460.7 128.8 460C171.7 459.3 214.3 417.7 257.2 418.2C300 418.7 343 461.3 385.8 477C428.7 492.7 471.3 481.3 514.2 468.8C557 456.3 600 442.7 642.8 448.7C685.7 454.7 728.3 480.3 771.2 495.3C814 510.3 857 514.7 878.5 516.8L900 519L900 601L878.5 601C857 601 814 601 771.2 601C728.3 601 685.7 601 642.8 601C600 601 557 601 514.2 601C471.3 601 428.7 601 385.8 601C343 601 300 601 257.2 601C214.3 601 171.7 601 128.8 601C86 601 43 601 21.5 601L0 601Z" fill="#FCAF3C" stroke-linecap="round" stroke-linejoin="miter"></path></svg>