<svg id="visual" viewBox="0 0 900 500" width="900" height="500" xmlns="http://www.w3.org/2000/svg" xmlns:xlink="http://www.w3.org/1999/xlink" version="1.1"><g stroke-width="1" stroke-linejoin="bevel"><path d="M482 287L398 234L366 269Z" fill="#caa032" stroke="#caa032"></path><path d="M366 269L366 394L482 287Z" fill="#c29e31" stroke="#c29e31"></path><path d="M366 269L308 334L366 394Z" fill="#ebaa38" stroke="#ebaa38"></path><path d="M366 394L535 384L482 287Z" fill="#ebaa38" stroke="#ebaa38"></path><path d="M365 110L336 160L398 234Z" fill="#d2a333" stroke="#d2a333"></path><path d="M398 234L336 160L366 269Z" fill="#d2a333" stroke="#d2a333"></path><path d="M208 211L210 320L308 334Z" fill="#c29e31" stroke="#c29e31"></path><path d="M529 162L477 139L482 287Z" fill="#e2a836" stroke="#e2a836"></path><path d="M482 287L477 139L398 234Z" fill="#daa634" stroke="#daa634"></path><path d="M584 202L529 162L482 287Z" fill="#e2a836" stroke="#e2a836"></path><path d="M621 305L584 202L482 287Z" fill="#b29830" stroke="#b29830"></path><path d="M210 320L275 401L308 334Z" fill="#ba9b31" stroke="#ba9b31"></path><path d="M308 334L275 401L366 394Z" fill="#b29830" stroke="#b29830"></path><path d="M366 394L427 500L535 384Z" fill="#ba9b31" stroke="#ba9b31"></path><path d="M477 139L365 110L398 234Z" fill="#b29830" stroke="#b29830"></path><path d="M535 384L621 305L482 287Z" fill="#f3ad3a" stroke="#f3ad3a"></path><path d="M281 500L427 500L366 394Z" fill="#e2a836" stroke="#e2a836"></path><path d="M535 384L620 405L621 305Z" fill="#fcaf3c" stroke="#fcaf3c"></path><path d="M365 110L293 118L336 160Z" fill="#caa032" stroke="#caa032"></path><path d="M208 211L308 334L366 269Z" fill="#e2a836" stroke="#e2a836"></path><path d="M208 211L366 269L336 160Z" fill="#ba9b31" stroke="#ba9b31"></path><path d="M427 500L503 500L535 384Z" fill="#e2a836" stroke="#e2a836"></path><path d="M293 118L208 211L336 160Z" fill="#caa032" stroke="#caa032"></path><path d="M589 500L620 405L535 384Z" fill="#daa634" stroke="#daa634"></path><path d="M125 393L199 365L210 320Z" fill="#daa634" stroke="#daa634"></path><path d="M210 320L199 365L275 401Z" fill="#caa032" stroke="#caa032"></path><path d="M275 401L281 500L366 394Z" fill="#c29e31" stroke="#c29e31"></path><path d="M620 405L666 303L621 305Z" fill="#f3ad3a" stroke="#f3ad3a"></path><path d="M621 305L666 303L584 202Z" fill="#daa634" stroke="#daa634"></path><path d="M213 500L281 500L275 401Z" fill="#fcaf3c" stroke="#fcaf3c"></path><path d="M503 500L589 500L535 384Z" fill="#c29e31" stroke="#c29e31"></path><path d="M620 405L697 437L666 303Z" fill="#ba9b31" stroke="#ba9b31"></path><path d="M293 118L207 106L208 211Z" fill="#b29830" stroke="#b29830"></path><path d="M208 211L115 226L210 320Z" fill="#caa032" stroke="#caa032"></path><path d="M204 0L207 106L293 118Z" fill="#daa634" stroke="#daa634"></path><path d="M529 162L596 60L477 139Z" fill="#f3ad3a" stroke="#f3ad3a"></path><path d="M477 139L362 0L365 110Z" fill="#caa032" stroke="#caa032"></path><path d="M365 110L333 0L293 118Z" fill="#f3ad3a" stroke="#f3ad3a"></path><path d="M584 202L596 60L529 162Z" fill="#ebaa38" stroke="#ebaa38"></path><path d="M692 131L596 60L584 202Z" fill="#daa634" stroke="#daa634"></path><path d="M666 303L698 187L584 202Z" fill="#fcaf3c" stroke="#fcaf3c"></path><path d="M523 0L362 0L477 139Z" fill="#ebaa38" stroke="#ebaa38"></path><path d="M199 365L213 500L275 401Z" fill="#ab9530" stroke="#ab9530"></path><path d="M362 0L333 0L365 110Z" fill="#ba9b31" stroke="#ba9b31"></path><path d="M596 60L523 0L477 139Z" fill="#daa634" stroke="#daa634"></path><path d="M698 187L692 131L584 202Z" fill="#f3ad3a" stroke="#f3ad3a"></path><path d="M596 60L605 0L523 0Z" fill="#ba9b31" stroke="#ba9b31"></path><path d="M689 500L697 437L620 405Z" fill="#daa634" stroke="#daa634"></path><path d="M666 303L779 292L698 187Z" fill="#b29830" stroke="#b29830"></path><path d="M130 109L115 226L208 211Z" fill="#ba9b31" stroke="#ba9b31"></path><path d="M199 365L125 393L213 500Z" fill="#e2a836" stroke="#e2a836"></path><path d="M60 279L125 393L210 320Z" fill="#f3ad3a" stroke="#f3ad3a"></path><path d="M589 500L689 500L620 405Z" fill="#ab9530" stroke="#ab9530"></path><path d="M726 0L605 0L596 60Z" fill="#f3ad3a" stroke="#f3ad3a"></path><path d="M207 106L130 109L208 211Z" fill="#fcaf3c" stroke="#fcaf3c"></path><path d="M204 0L130 109L207 106Z" fill="#f3ad3a" stroke="#f3ad3a"></path><path d="M773 406L666 303L697 437Z" fill="#caa032" stroke="#caa032"></path><path d="M773 406L779 292L666 303Z" fill="#ba9b31" stroke="#ba9b31"></path><path d="M698 187L784 192L692 131Z" fill="#ab9530" stroke="#ab9530"></path><path d="M333 0L204 0L293 118Z" fill="#ba9b31" stroke="#ba9b31"></path><path d="M0 296L60 279L0 201Z" fill="#ba9b31" stroke="#ba9b31"></path><path d="M115 226L60 279L210 320Z" fill="#daa634" stroke="#daa634"></path><path d="M821 500L773 406L697 437Z" fill="#f3ad3a" stroke="#f3ad3a"></path><path d="M779 292L784 192L698 187Z" fill="#daa634" stroke="#daa634"></path><path d="M692 131L726 0L596 60Z" fill="#ab9530" stroke="#ab9530"></path><path d="M0 371L62 500L125 393Z" fill="#f3ad3a" stroke="#f3ad3a"></path><path d="M125 393L62 500L213 500Z" fill="#ebaa38" stroke="#ebaa38"></path><path d="M821 124L726 0L692 131Z" fill="#ba9b31" stroke="#ba9b31"></path><path d="M60 279L0 371L125 393Z" fill="#ba9b31" stroke="#ba9b31"></path><path d="M0 201L60 279L115 226Z" fill="#ebaa38" stroke="#ebaa38"></path><path d="M0 201L115 226L130 109Z" fill="#d2a333" stroke="#d2a333"></path><path d="M0 296L0 371L60 279Z" fill="#fcaf3c" stroke="#fcaf3c"></path><path d="M900 221L821 124L784 192Z" fill="#e2a836" stroke="#e2a836"></path><path d="M784 192L821 124L692 131Z" fill="#e2a836" stroke="#e2a836"></path><path d="M900 221L784 192L779 292Z" fill="#ba9b31" stroke="#ba9b31"></path><path d="M0 84L0 201L130 109Z" fill="#f3ad3a" stroke="#f3ad3a"></path><path d="M689 500L821 500L697 437Z" fill="#ab9530" stroke="#ab9530"></path><path d="M773 406L900 306L779 292Z" fill="#f3ad3a" stroke="#f3ad3a"></path><path d="M204 0L62 0L130 109Z" fill="#daa634" stroke="#daa634"></path><path d="M62 0L0 84L130 109Z" fill="#ab9530" stroke="#ab9530"></path><path d="M0 371L0 500L62 500Z" fill="#fcaf3c" stroke="#fcaf3c"></path><path d="M900 415L900 306L773 406Z" fill="#b29830" stroke="#b29830"></path><path d="M900 306L900 221L779 292Z" fill="#fcaf3c" stroke="#fcaf3c"></path><path d="M821 124L819 0L726 0Z" fill="#d2a333" stroke="#d2a333"></path><path d="M900 76L819 0L821 124Z" fill="#e2a836" stroke="#e2a836"></path><path d="M821 500L900 415L773 406Z" fill="#ab9530" stroke="#ab9530"></path><path d="M62 0L0 0L0 84Z" fill="#caa032" stroke="#caa032"></path><path d="M821 500L900 500L900 415Z" fill="#ebaa38" stroke="#ebaa38"></path><path d="M900 221L900 76L821 124Z" fill="#caa032" stroke="#caa032"></path><path d="M900 76L900 0L819 0Z" fill="#ebaa38" stroke="#ebaa38"></path></g></svg>