<svg id="visual" viewBox="0 0 900 500" width="900" height="500" xmlns="http://www.w3.org/2000/svg" xmlns:xlink="http://www.w3.org/1999/xlink" version="1.1"><rect x="0" y="0" width="900" height="500" fill="#FFFFFF"></rect><defs><linearGradient id="grad1_0" x1="44.4%" y1="0%" x2="100%" y2="100%"><stop offset="13.999999999999998%" stop-color="#ffffff" stop-opacity="1"></stop><stop offset="86%" stop-color="#ffffff" stop-opacity="1"></stop></linearGradient></defs><defs><linearGradient id="grad2_0" x1="0%" y1="0%" x2="55.6%" y2="100%"><stop offset="13.999999999999998%" stop-color="#ffffff" stop-opacity="1"></stop><stop offset="86%" stop-color="#ffffff" stop-opacity="1"></stop></linearGradient></defs><g transform="translate(900, 0)"><path d="M0 450C-40.7 399.6 -81.4 349.2 -138.5 334.4C-195.7 319.7 -269.3 340.7 -318.2 318.2C-367.1 295.7 -391.4 229.8 -409.3 169.5C-427.1 109.3 -438.6 54.6 -450 0L0 0Z" fill="#FCAF3C"></path></g><g transform="translate(0, 500)"><path d="M0 -450C51.3 -416.7 102.6 -383.4 147.3 -355.7C192.1 -327.9 230.2 -305.7 278.6 -278.6C327 -251.5 385.5 -219.5 415.7 -172.2C446 -125 448 -62.5 450 0L0 0Z" fill="#FCAF3C"></path></g></svg>