<svg id="visual" viewBox="0 0 900 500" width="900" height="500" xmlns="http://www.w3.org/2000/svg" xmlns:xlink="http://www.w3.org/1999/xlink" version="1.1"><rect x="0" y="0" width="900" height="500" fill="#FFFFFF"></rect><path d="M0 182L113 182L113 160L225 160L225 224L338 224L338 236L450 236L450 184L563 184L563 159L675 159L675 271L788 271L788 259L900 259L900 175L900 0L900 0L788 0L788 0L675 0L675 0L563 0L563 0L450 0L450 0L338 0L338 0L225 0L225 0L113 0L113 0L0 0Z" fill="#f3e5d0"></path><path d="M0 107L113 107L113 105L225 105L225 149L338 149L338 99L450 99L450 66L563 66L563 112L675 112L675 74L788 74L788 170L900 170L900 124L900 0L900 0L788 0L788 0L675 0L675 0L563 0L563 0L450 0L450 0L338 0L338 0L225 0L225 0L113 0L113 0L0 0Z" fill="#fcaf3c"></path></svg>