<svg id="visual" viewBox="0 0 900 500" width="900" height="500" xmlns="http://www.w3.org/2000/svg" xmlns:xlink="http://www.w3.org/1999/xlink" version="1.1"><path d="M0 166L82 166L82 106L164 106L164 76L245 76L245 221L327 221L327 191L409 191L409 116L491 116L491 206L573 206L573 86L655 86L655 146L736 146L736 126L818 126L818 101L900 101L900 186L900 0L900 0L818 0L818 0L736 0L736 0L655 0L655 0L573 0L573 0L491 0L491 0L409 0L409 0L327 0L327 0L245 0L245 0L164 0L164 0L82 0L82 0L0 0Z" fill="#fa7268"></path><path d="M0 246L82 246L82 161L164 161L164 156L245 156L245 316L327 316L327 251L409 251L409 161L491 161L491 321L573 321L573 181L655 181L655 266L736 266L736 221L818 221L818 181L900 181L900 291L900 184L900 99L818 99L818 124L736 124L736 144L655 144L655 84L573 84L573 204L491 204L491 114L409 114L409 189L327 189L327 219L245 219L245 74L164 74L164 104L82 104L82 164L0 164Z" fill="#fe7f5c"></path><path d="M0 316L82 316L82 216L164 216L164 231L245 231L245 346L327 346L327 326L409 326L409 226L491 226L491 381L573 381L573 226L655 226L655 331L736 331L736 281L818 281L818 261L900 261L900 371L900 289L900 179L818 179L818 219L736 219L736 264L655 264L655 179L573 179L573 319L491 319L491 159L409 159L409 249L327 249L327 314L245 314L245 154L164 154L164 159L82 159L82 244L0 244Z" fill="#ff8e50"></path><path d="M0 456L82 456L82 431L164 431L164 421L245 421L245 441L327 441L327 461L409 461L409 441L491 441L491 466L573 466L573 451L655 451L655 411L736 411L736 411L818 411L818 441L900 441L900 456L900 369L900 259L818 259L818 279L736 279L736 329L655 329L655 224L573 224L573 379L491 379L491 224L409 224L409 324L327 324L327 344L245 344L245 229L164 229L164 214L82 214L82 314L0 314Z" fill="#ff9e45"></path><path d="M0 501L82 501L82 501L164 501L164 501L245 501L245 501L327 501L327 501L409 501L409 501L491 501L491 501L573 501L573 501L655 501L655 501L736 501L736 501L818 501L818 501L900 501L900 501L900 454L900 439L818 439L818 409L736 409L736 409L655 409L655 449L573 449L573 464L491 464L491 439L409 439L409 459L327 459L327 439L245 439L245 419L164 419L164 429L82 429L82 454L0 454Z" fill="#fcaf3c"></path></svg>