<svg id="visual" viewBox="0 0 900 500" width="900" height="500" xmlns="http://www.w3.org/2000/svg" xmlns:xlink="http://www.w3.org/1999/xlink" version="1.1"><rect x="0" y="0" width="900" height="500" fill="#d9b052"></rect><path d="M0 127L10.7 123C21.3 119 42.7 111 64.2 105.8C85.7 100.7 107.3 98.3 128.8 99.7C150.3 101 171.7 106 193 105.3C214.3 104.7 235.7 98.3 257 101.7C278.3 105 299.7 118 321.2 125.3C342.7 132.7 364.3 134.3 385.8 124.5C407.3 114.7 428.7 93.3 450 84.3C471.3 75.3 492.7 78.7 514.2 91.8C535.7 105 557.3 128 578.8 131.7C600.3 135.3 621.7 119.7 643 110.7C664.3 101.7 685.7 99.3 707 112.8C728.3 126.3 749.7 155.7 771.2 167C792.7 178.3 814.3 171.7 835.8 163.7C857.3 155.7 878.7 146.3 889.3 141.7L900 137L900 0L889.3 0C878.7 0 857.3 0 835.8 0C814.3 0 792.7 0 771.2 0C749.7 0 728.3 0 707 0C685.7 0 664.3 0 643 0C621.7 0 600.3 0 578.8 0C557.3 0 535.7 0 514.2 0C492.7 0 471.3 0 450 0C428.7 0 407.3 0 385.8 0C364.3 0 342.7 0 321.2 0C299.7 0 278.3 0 257 0C235.7 0 214.3 0 193 0C171.7 0 150.3 0 128.8 0C107.3 0 85.7 0 64.2 0C42.7 0 21.3 0 10.7 0L0 0Z" fill="#FCAF3C" stroke-linecap="round" stroke-linejoin="miter"></path></svg>