<svg id="visual" viewBox="0 0 900 500" width="900" height="500" xmlns="http://www.w3.org/2000/svg" xmlns:xlink="http://www.w3.org/1999/xlink" version="1.1"><path d="M0 56L13.7 62.7C27.3 69.3 54.7 82.7 82 83.5C109.3 84.3 136.7 72.7 163.8 76.8C191 81 218 101 245.2 104.3C272.3 107.7 299.7 94.3 327 91C354.3 87.7 381.7 94.3 409 100.2C436.3 106 463.7 111 491 111.8C518.3 112.7 545.7 109.3 573 101C600.3 92.7 627.7 79.3 654.8 77.7C682 76 709 86 736.2 87.7C763.3 89.3 790.7 82.7 818 74.3C845.3 66 872.7 56 886.3 51L900 46L900 0L886.3 0C872.7 0 845.3 0 818 0C790.7 0 763.3 0 736.2 0C709 0 682 0 654.8 0C627.7 0 600.3 0 573 0C545.7 0 518.3 0 491 0C463.7 0 436.3 0 409 0C381.7 0 354.3 0 327 0C299.7 0 272.3 0 245.2 0C218 0 191 0 163.8 0C136.7 0 109.3 0 82 0C54.7 0 27.3 0 13.7 0L0 0Z" fill="#debf75"></path><path d="M0 161L13.7 179.3C27.3 197.7 54.7 234.3 82 246.8C109.3 259.3 136.7 247.7 163.8 252.7C191 257.7 218 279.3 245.2 274.3C272.3 269.3 299.7 237.7 327 235.2C354.3 232.7 381.7 259.3 409 260.2C436.3 261 463.7 236 491 221C518.3 206 545.7 201 573 195.2C600.3 189.3 627.7 182.7 654.8 186.8C682 191 709 206 736.2 230.2C763.3 254.3 790.7 287.7 818 281C845.3 274.3 872.7 227.7 886.3 204.3L900 181L900 44L886.3 49C872.7 54 845.3 64 818 72.3C790.7 80.7 763.3 87.3 736.2 85.7C709 84 682 74 654.8 75.7C627.7 77.3 600.3 90.7 573 99C545.7 107.3 518.3 110.7 491 109.8C463.7 109 436.3 104 409 98.2C381.7 92.3 354.3 85.7 327 89C299.7 92.3 272.3 105.7 245.2 102.3C218 99 191 79 163.8 74.8C136.7 70.7 109.3 82.3 82 81.5C54.7 80.7 27.3 67.3 13.7 60.7L0 54Z" fill="#d7b056"></path><path d="M0 256L13.7 274.3C27.3 292.7 54.7 329.3 82 338.5C109.3 347.7 136.7 329.3 163.8 329.3C191 329.3 218 347.7 245.2 341.8C272.3 336 299.7 306 327 308.5C354.3 311 381.7 346 409 346C436.3 346 463.7 311 491 294.3C518.3 277.7 545.7 279.3 573 271.8C600.3 264.3 627.7 247.7 654.8 251C682 254.3 709 277.7 736.2 300.2C763.3 322.7 790.7 344.3 818 332.7C845.3 321 872.7 276 886.3 253.5L900 231L900 179L886.3 202.3C872.7 225.7 845.3 272.3 818 279C790.7 285.7 763.3 252.3 736.2 228.2C709 204 682 189 654.8 184.8C627.7 180.7 600.3 187.3 573 193.2C545.7 199 518.3 204 491 219C463.7 234 436.3 259 409 258.2C381.7 257.3 354.3 230.7 327 233.2C299.7 235.7 272.3 267.3 245.2 272.3C218 277.3 191 255.7 163.8 250.7C136.7 245.7 109.3 257.3 82 244.8C54.7 232.3 27.3 195.7 13.7 177.3L0 159Z" fill="#cfa136"></path><path d="M0 301L13.7 317.7C27.3 334.3 54.7 367.7 82 378.5C109.3 389.3 136.7 377.7 163.8 382.7C191 387.7 218 409.3 245.2 401C272.3 392.7 299.7 354.3 327 355.2C354.3 356 381.7 396 409 401C436.3 406 463.7 376 491 358.5C518.3 341 545.7 336 573 326C600.3 316 627.7 301 654.8 301.8C682 302.7 709 319.3 736.2 341C763.3 362.7 790.7 389.3 818 385.2C845.3 381 872.7 346 886.3 328.5L900 311L900 229L886.3 251.5C872.7 274 845.3 319 818 330.7C790.7 342.3 763.3 320.7 736.2 298.2C709 275.7 682 252.3 654.8 249C627.7 245.7 600.3 262.3 573 269.8C545.7 277.3 518.3 275.7 491 292.3C463.7 309 436.3 344 409 344C381.7 344 354.3 309 327 306.5C299.7 304 272.3 334 245.2 339.8C218 345.7 191 327.3 163.8 327.3C136.7 327.3 109.3 345.7 82 336.5C54.7 327.3 27.3 290.7 13.7 272.3L0 254Z" fill="#b38b2f"></path><path d="M0 501L13.7 501C27.3 501 54.7 501 82 501C109.3 501 136.7 501 163.8 501C191 501 218 501 245.2 501C272.3 501 299.7 501 327 501C354.3 501 381.7 501 409 501C436.3 501 463.7 501 491 501C518.3 501 545.7 501 573 501C600.3 501 627.7 501 654.8 501C682 501 709 501 736.2 501C763.3 501 790.7 501 818 501C845.3 501 872.7 501 886.3 501L900 501L900 309L886.3 326.5C872.7 344 845.3 379 818 383.2C790.7 387.3 763.3 360.7 736.2 339C709 317.3 682 300.7 654.8 299.8C627.7 299 600.3 314 573 324C545.7 334 518.3 339 491 356.5C463.7 374 436.3 404 409 399C381.7 394 354.3 354 327 353.2C299.7 352.3 272.3 390.7 245.2 399C218 407.3 191 385.7 163.8 380.7C136.7 375.7 109.3 387.3 82 376.5C54.7 365.7 27.3 332.3 13.7 315.7L0 299Z" fill="#987628"></path></svg>